# xmcd
#
# Track frame offsets: 
#        150
#        14304
#        24836
#        39684
#        55286
#        72757
#        87938
#        109126
#        122188
#        135850
#        149728
#        169446
#        181898
#        195104
#        209985
#        225460
#        239127
#        249200
#        261910
#        275880
#        289254
#        308225
#
# Disc length: 4297 seconds
#
# Revision: 0
# Processed by: cddbd v1.5.2PL0 Copyright (c) Steve Scherf et al.
# Submitted via: ExactAudioCopy v0.95b4
#
DISCID=4d10c716
DTITLE=Piaf, Edith - La Vie en Rose
DYEAR=2007
DGENRE=Historic
TTITLE0=La Vie en Rose
TTITLE1=Rein de Rein
TTITLE2=Padam, Padam
TTITLE3=Hymne a L'Amour
TTITLE4=Mon Legionnaire
TTITLE5=Les Momes de la Cloche
TTITLE6=Milord
TTITLE7=Mon Manege a Moi
TTITLE8=La Foule
TTITLE9=Mon Dieu
TTITLE10=Je M'en Fous Pas Mal
TTITLE11=Un Coin Tout Bleu
TTITLE12=La Rue Aux Chansons
TTITLE13=Correqu' et Reguyer
TTITLE14=Le Vagabond
TTITLE15=Monsieur et Madame
TTITLE16=Le Chant du Pirate
TTITLE17=Tu Es Partout
TTITLE18=Un Refrain Courait Dans La Rue
TTITLE19=Simple Comme Bonjour
TTITLE20=Les Trois Cloches
TTITLE21=Adieu Mon Coeur
EXTD=
EXTT0=
EXTT1=
EXTT2=
EXTT3=
EXTT4=
EXTT5=
EXTT6=
EXTT7=
EXTT8=
EXTT9=
EXTT10=
EXTT11=
EXTT12=
EXTT13=
EXTT14=
EXTT15=
EXTT16=
EXTT17=
EXTT18=
EXTT19=
EXTT20=
EXTT21=
PLAYORDER=
